<svg width="16" height="23" viewBox="0 0 16 23" fill="none" xmlns="http://www.w3.org/2000/svg">
<path d="M14 5.07122H12C12 2.65316 10.21 0.694638 8 0.694638C5.79 0.694638 4 2.65316 4 5.07122H2C0.9 5.07122 0 6.05596 0 7.25952V20.3893C0 21.5928 0.9 22.5776 2 22.5776H14C15.1 22.5776 16 21.5928 16 20.3893V7.25952C16 6.05596 15.1 5.07122 14 5.07122ZM8 2.88293C9.1 2.88293 10 3.86766 10 5.07122H6C6 3.86766 6.9 2.88293 8 2.88293ZM14 20.3893H2V7.25952H4V9.44781C4 10.0496 4.45 10.542 5 10.542C5.55 10.542 6 10.0496 6 9.44781V7.25952H10V9.44781C10 10.0496 10.45 10.542 11 10.542C11.55 10.542 12 10.0496 12 9.44781V7.25952H14V20.3893Z" fill="#FFFEFE"/>
</svg>
