<svg width="21" height="19" viewBox="0 0 21 19" fill="none" xmlns="http://www.w3.org/2000/svg">
<path d="M15.0641 0.920776C13.3701 0.920776 11.7442 1.70938 10.683 2.95556C9.62177 1.70938 7.99588 0.920776 6.30185 0.920776C3.30321 0.920776 0.947144 3.27685 0.947144 6.27548C0.947144 9.95563 4.25733 12.9543 9.27128 17.5106L10.683 18.786L12.0947 17.5009C17.1086 12.9543 20.4188 9.95563 20.4188 6.27548C20.4188 3.27685 18.0627 0.920776 15.0641 0.920776ZM10.7803 16.06L10.683 16.1573L10.5856 16.06C5.95136 11.8638 2.89431 9.08914 2.89431 6.27548C2.89431 4.32832 4.35468 2.86794 6.30185 2.86794C7.80117 2.86794 9.26154 3.83179 9.77754 5.1656H11.5981C12.1044 3.83179 13.5648 2.86794 15.0641 2.86794C17.0113 2.86794 18.4716 4.32832 18.4716 6.27548C18.4716 9.08914 15.4146 11.8638 10.7803 16.06Z" fill="#2E4030"/>
</svg>
