<svg width="71" height="71" viewBox="0 0 71 71" fill="none" xmlns="http://www.w3.org/2000/svg">
<path d="M0.540037 43.9141C0.352188 45.9431 0.820841 48.4369 2.02148 50.8984L2.02246 50.8984C3.22658 53.3569 4.912 55.276 6.6416 56.3984C8.27214 57.4566 9.87008 57.7685 11.1514 57.2871L11.4033 57.1797C11.6477 57.0635 12.0799 56.7645 12.6885 56.2764C13.2844 55.7984 14.016 55.167 14.8486 54.4199C16.5135 52.9261 18.5671 50.982 20.7187 48.8965C25.0215 44.7261 29.7044 40.0049 32.4365 37.2314L33.21 37.8584C31.0701 41.1009 27.4414 46.6501 24.2734 51.7109C22.6891 54.2419 21.2223 56.6468 20.1152 58.5781C19.5615 59.5442 19.1009 60.3878 18.7607 61.0664C18.5001 61.5864 18.3224 61.9861 18.2246 62.2627L18.1533 62.498C17.8292 63.8951 18.4769 65.4621 19.9805 66.8828C21.4261 68.2487 23.6025 69.4087 26.1934 70.0352L26.1982 70.0322L26.4639 70.0928C29.1677 70.7024 31.7441 70.6009 33.7148 69.9668C35.5742 69.3686 36.8142 68.3298 37.2295 67.0439L37.3018 66.7842C37.3612 66.5246 37.3919 66.0063 37.3838 65.2334C37.3758 64.4763 37.3316 63.5193 37.2578 62.4121C37.1102 60.1986 36.8474 57.4053 36.5342 54.4482C35.9079 48.535 35.0831 41.9855 34.5869 38.1494L35.5557 37.9248C36.796 41.5944 38.9374 47.8494 40.9775 53.4453C41.9977 56.2435 42.9909 58.8726 43.833 60.9297C44.2543 61.9587 44.6355 62.8401 44.9619 63.5254C45.2119 64.0502 45.4193 64.4363 45.5781 64.6846L45.7207 64.8867C46.6326 66.0111 48.2893 66.4881 50.3564 66.2148C52.4111 65.9432 54.7761 64.9346 56.9404 63.2305C59.1052 61.5259 60.6275 59.4793 61.3525 57.5703C62.036 55.7707 61.9881 54.1747 61.2305 53.0586L61.0693 52.8418C60.9009 52.634 60.5097 52.2863 59.8916 51.8105C59.2863 51.3446 58.4994 50.7819 57.5752 50.1484C55.7275 48.882 53.3471 47.3429 50.8057 45.7402C45.7237 42.5355 40.012 39.0866 36.6582 37.0791L37.085 36.1807C40.7695 37.5136 47.0667 39.7642 52.7783 41.6816C55.6347 42.6406 58.3404 43.5147 60.498 44.1484C61.5771 44.4654 62.514 44.7208 63.2617 44.8965C64.0249 45.0758 64.5469 45.1611 64.8193 45.1611C66.2852 45.1611 67.694 44.1817 68.7627 42.4238C69.8259 40.6749 70.5 38.2267 70.5 35.4961C70.5 32.7655 69.8259 30.3173 68.7627 28.5684C67.694 26.8107 66.2851 25.832 64.8193 25.832C64.547 25.8321 64.0251 25.9172 63.2617 26.0967C62.5138 26.2725 61.5764 26.5285 60.4971 26.8457C58.339 27.4799 55.6329 28.3542 52.7764 29.3135C47.0638 31.2318 40.7664 33.4828 37.085 34.8125L36.6582 33.9131C40.0087 31.9088 45.7209 28.4625 50.8037 25.2578C53.3455 23.6552 55.7261 22.1149 57.5742 20.8477C58.4985 20.2139 59.2853 19.651 59.8906 19.1846C60.3547 18.827 60.6912 18.5422 60.9014 18.334L61.0693 18.1523L61.0693 18.1514C61.9785 17.0302 62.0835 15.3422 61.3555 13.4229C60.6313 11.5139 59.1085 9.46731 56.9404 7.7627C54.7726 6.05832 52.4083 5.04904 50.3545 4.77735C48.288 4.50399 46.6327 4.98183 45.7207 6.10645L45.7197 6.10547C45.5514 6.31408 45.296 6.76832 44.9629 7.46778C44.6364 8.15321 44.2543 9.03423 43.833 10.0635C42.9908 12.1211 41.9978 14.7511 40.9775 17.5498C38.9374 23.1465 36.796 29.4019 35.5557 33.0684L34.5869 32.8438C35.0863 29.008 35.9127 22.4562 36.5391 16.542C36.8523 13.5846 37.1149 10.7912 37.2617 8.57813C37.3351 7.47112 37.3794 6.51434 37.3867 5.75781C37.3923 5.17767 37.3748 4.74168 37.3408 4.45117L37.3018 4.20899L37.2295 3.9502C36.8145 2.67003 35.5763 1.63249 33.7178 1.03418C31.8708 0.439676 29.4907 0.311981 26.9697 0.800782L26.4639 0.906251C23.7599 1.516 21.4848 2.71077 19.9893 4.12305C18.5787 5.45519 17.9201 6.91586 18.1104 8.24414L18.1602 8.50781L18.1602 8.50879C18.2195 8.76677 18.4175 9.24692 18.7646 9.94043C19.1043 10.6189 19.5656 11.4618 20.1191 12.4277C21.2258 14.3591 22.693 16.764 24.2773 19.2949C27.4452 24.3556 31.0733 29.9047 33.21 33.1475L32.4365 33.7734C29.7044 30.9999 25.0224 26.2796 20.7207 22.1094C18.5696 20.024 16.5166 18.0797 14.8516 16.5859C14.0187 15.8388 13.2868 15.2075 12.6904 14.7295C12.2334 14.3632 11.8756 14.1033 11.6221 13.9473L11.4043 13.8262L11.4033 13.8262L11.1514 13.7188C9.86966 13.2371 8.27071 13.5483 6.63965 14.6055C5.01754 15.6569 3.43384 17.4084 2.25293 19.6514L2.02246 20.1064C0.821478 22.5683 0.352165 25.0625 0.540038 27.0918C0.717079 29.0038 1.46282 30.4249 2.63867 31.1104L2.87988 31.2373C3.12429 31.3534 3.63101 31.4993 4.39746 31.6641C5.14842 31.8255 6.10568 31.996 7.21777 32.1719C9.44125 32.5235 12.2652 32.8935 15.2617 33.251C21.2533 33.9658 27.9184 34.6301 31.8213 35.0049L31.8213 36.001C27.9183 36.3758 21.2545 37.04 15.2637 37.7549C12.2676 38.1124 9.44449 38.4824 7.2207 38.834C6.10839 39.0099 5.15089 39.1804 4.39941 39.3418C3.63303 39.5064 3.12554 39.6523 2.87988 39.7686C1.5651 40.394 0.728876 41.8745 0.540037 43.9141Z" fill="#2E4030" stroke="black"/>
</svg>
