<svg width="18" height="20" viewBox="0 0 18 20" fill="none" xmlns="http://www.w3.org/2000/svg">
<path d="M12.5 12.8244H11.71L11.43 12.529C12.41 11.2817 13 9.66231 13 7.90074C13 3.97275 10.09 0.788785 6.5 0.788785C2.91 0.788785 0 3.97275 0 7.90074C0 11.8287 2.91 15.0127 6.5 15.0127C8.11 15.0127 9.59 14.3671 10.73 13.2949L11 13.6012V14.4656L16 19.9254L17.49 18.2951L12.5 12.8244V12.8244ZM6.5 12.8244C4.01 12.8244 2 10.6252 2 7.90074C2 5.17631 4.01 2.97708 6.5 2.97708C8.99 2.97708 11 5.17631 11 7.90074C11 10.6252 8.99 12.8244 6.5 12.8244Z" fill="#FFFEFE"/>
</svg>
