<svg width="71" height="71" viewBox="0 0 71 71" fill="none" xmlns="http://www.w3.org/2000/svg">
<path d="M26.3477 70.587C20.7893 69.3351 16.9051 65.6644 17.6661 62.3848C18.2682 59.7964 28.5115 44.0702 32.7928 37.5828C27.327 43.1313 14.0465 56.4777 11.618 57.6318C8.54105 59.0922 4.04803 56.1713 1.57323 51.1183C-0.894951 46.0588 -0.405284 40.7776 2.66506 39.3171C5.10016 38.1631 23.9656 36.2527 31.7737 35.5029C23.9656 34.7531 5.09354 32.8428 2.66506 31.6887C-0.405284 30.2282 -0.89495 24.947 1.57323 19.8875C4.04142 14.828 8.54106 11.9136 11.618 13.3741C14.0531 14.5281 27.327 27.8745 32.7928 33.423C28.5181 26.9356 18.2682 11.2094 17.6727 8.621C16.9117 5.34145 20.8026 1.67069 26.3543 0.418856C31.9127 -0.832981 37.0277 0.816576 37.7887 4.09613C38.3909 6.68456 36.0815 25.2339 35.0823 32.9079C37.5637 25.573 43.6515 7.8712 45.3322 5.79133C47.4629 3.16377 52.7963 3.86793 57.2496 7.36916C61.7029 10.8704 63.5888 15.8386 61.4581 18.4662C59.7774 20.5461 43.6184 30.3326 36.9152 34.3423C44.2801 31.6822 62.1198 25.3317 64.8196 25.3317C68.234 25.3317 71 29.8827 71 35.4964C71 41.1101 68.234 45.6611 64.8196 45.6611C62.1198 45.6611 44.2867 39.3171 36.9152 36.6504C43.625 40.6667 59.7774 50.4532 61.4581 52.5266C63.5888 55.1542 61.6963 60.1224 57.2496 63.6236C52.8029 67.1248 47.4629 67.829 45.3322 65.2014C43.6515 63.1216 37.5637 45.4263 35.0823 38.0848C36.0749 45.7588 38.3842 64.3017 37.7887 66.8967C37.0277 70.1892 31.9061 71.8323 26.3543 70.5804L26.3477 70.587Z" fill="#AD8C47"/>
</svg>
